<?xml version="1.0" standalone="no"?>
<!DOCTYPE svg PUBLIC "-//W3C//DTD SVG 20010904//EN"
 "http://www.w3.org/TR/2001/REC-SVG-20010904/DTD/svg10.dtd">
<svg version="1.0" xmlns="http://www.w3.org/2000/svg"
 width="1200.000000pt" height="1200.000000pt" viewBox="0 0 1200.000000 1200.000000"
 preserveAspectRatio="xMidYMid meet">
<metadata>
Created by potrace 1.14, written by Peter Selinger 2001-2017
</metadata>
<g transform="translate(0.000000,1200.000000) scale(0.100000,-0.100000)"
fill="#000000" stroke="none">
<path d="M5645 11963 c-159 -8 -441 -36 -458 -44 -10 -6 -28 -9 -40 -8 -12 1
-29 0 -37 -3 -8 -3 -53 -11 -100 -17 -129 -18 -403 -72 -417 -83 -6 -5 -17 -8
-25 -7 -7 1 -20 -1 -28 -4 -8 -3 -63 -18 -121 -32 -145 -35 -461 -140 -665
-221 -93 -37 -173 -70 -179 -74 -5 -4 -59 -29 -120 -55 -60 -26 -114 -51 -120
-55 -5 -5 -48 -27 -95 -50 -69 -35 -203 -109 -290 -160 -91 -54 -165 -100
-215 -135 -33 -22 -71 -46 -85 -53 -21 -11 -100 -69 -365 -267 -253 -189 -674
-602 -929 -910 -60 -73 -75 -92 -91 -117 -5 -9 -49 -67 -96 -129 -98 -129
-339 -496 -339 -516 0 -7 -4 -13 -10 -13 -5 0 -10 -6 -10 -13 0 -7 -15 -35
-33 -63 -59 -93 -297 -577 -297 -606 0 -7 -8 -25 -17 -38 -10 -14 -17 -26 -16
-27 1 -2 -6 -23 -17 -49 -11 -25 -20 -48 -20 -52 0 -5 -32 -94 -68 -192 -3 -8
-6 -17 -7 -20 -1 -3 -7 -17 -12 -31 -6 -14 -28 -84 -48 -155 -20 -71 -40 -136
-43 -144 -3 -8 -7 -19 -7 -25 -1 -5 -7 -22 -13 -36 -6 -15 -27 -107 -47 -205
-20 -99 -39 -186 -43 -194 -3 -8 -6 -24 -7 -35 -1 -11 -5 -27 -8 -35 -9 -22
-36 -211 -59 -420 -25 -236 -36 -835 -19 -1086 20 -287 64 -647 83 -671 5 -7
7 -17 4 -22 -4 -6 -2 -18 3 -28 5 -10 17 -58 26 -108 21 -110 63 -294 72 -315
3 -8 7 -19 8 -25 0 -5 4 -17 8 -25 3 -8 13 -42 22 -75 26 -94 75 -247 89 -280
8 -16 28 -73 46 -125 18 -52 37 -104 43 -115 6 -11 12 -24 13 -30 5 -27 115
-269 192 -420 124 -247 172 -333 256 -465 23 -36 49 -78 57 -93 8 -15 55 -84
105 -153 49 -69 94 -133 99 -142 6 -9 16 -21 23 -25 6 -4 12 -13 12 -19 0 -14
178 -234 309 -383 135 -152 383 -400 536 -536 134 -118 392 -328 415 -337 8
-3 40 -24 70 -47 89 -66 248 -175 257 -175 5 0 33 -17 63 -37 152 -103 557
-314 780 -407 63 -26 124 -52 134 -58 49 -26 435 -156 556 -188 47 -12 92 -25
100 -28 8 -3 17 -6 20 -7 3 -1 12 -5 20 -8 21 -9 226 -53 335 -72 50 -9 97
-19 105 -22 8 -3 26 -7 40 -9 14 -1 77 -12 141 -23 261 -44 451 -56 899 -56
270 0 472 5 555 13 218 21 449 52 471 63 11 6 27 10 35 8 8 -1 21 0 29 4 8 3
69 15 135 27 96 18 263 56 320 74 6 1 44 12 85 24 41 12 105 31 141 42 36 11
70 20 77 20 6 0 23 5 39 12 15 6 30 12 33 13 3 1 21 9 41 18 19 8 48 19 65 23
47 11 390 150 494 201 205 99 353 176 462 241 48 29 89 52 93 52 3 0 18 8 33
19 28 19 256 168 284 186 87 54 439 330 503 395 17 16 35 30 41 30 27 0 624
607 624 635 0 4 22 32 49 63 69 81 272 344 279 362 3 8 8 17 11 20 3 3 11 12
16 22 6 9 49 74 97 145 48 71 91 140 97 154 5 13 30 56 55 94 49 75 235 437
281 545 15 36 38 88 51 115 13 28 37 88 54 134 16 46 35 90 41 97 6 8 8 14 4
14 -4 0 -3 6 2 13 6 6 29 73 53 147 23 74 44 142 48 150 3 8 6 17 7 20 1 3 6
16 12 30 6 14 27 95 48 180 20 85 39 162 43 170 3 8 4 19 3 24 -1 4 3 14 9 21
6 8 10 19 9 27 -1 7 1 20 4 28 12 30 56 298 73 440 9 80 20 154 25 165 13 32
29 270 36 525 6 221 -11 692 -25 715 -3 5 -5 29 -3 53 1 24 -2 48 -7 55 -5 7
-12 44 -16 82 -16 170 -78 533 -97 571 -6 11 -9 24 -8 30 1 5 0 16 -4 24 -3 8
-22 83 -42 165 -20 83 -41 155 -46 161 -5 6 -6 14 -3 17 3 3 2 12 -2 19 -5 7
-9 15 -10 18 0 3 -6 18 -12 33 -7 16 -12 32 -12 37 0 9 -47 152 -63 190 -5 14
-11 30 -13 35 -1 6 -18 50 -38 100 -20 49 -36 93 -36 97 0 4 -20 49 -45 101
-25 52 -45 98 -45 102 0 17 -235 477 -273 534 -43 64 -87 141 -87 151 0 6 -4
10 -10 10 -5 0 -10 5 -10 11 0 10 -59 98 -226 338 -145 208 -468 579 -685 786
-213 203 -607 535 -634 535 -4 0 -32 19 -63 43 -71 54 -267 187 -275 187 -4 0
-49 27 -99 59 -51 33 -127 78 -168 100 -163 87 -500 253 -520 256 -3 0 -18 8
-35 17 -16 8 -59 26 -95 38 -36 12 -87 33 -115 46 -27 12 -106 41 -175 64 -69
22 -132 43 -140 47 -8 3 -17 7 -20 8 -3 1 -12 4 -20 8 -26 10 -333 92 -380
101 -8 1 -22 5 -30 9 -23 10 -251 53 -380 72 -63 9 -122 19 -130 22 -8 3 -28
5 -43 4 -15 -2 -33 2 -40 7 -42 33 -772 63 -1112 45z m461 -836 c-271 -171
-259 -163 -596 -410 -107 -79 -205 -170 -255 -237 -42 -57 -112 -196 -119
-235 -3 -16 -8 -41 -11 -55 -20 -78 -29 -170 -75 -768 -87 -1151 -117 -1589
-150 -2187 -38 -697 -42 -821 -47 -1480 -5 -663 -3 -769 37 -1560 17 -317 51
-713 85 -985 8 -63 19 -155 25 -205 6 -49 17 -126 25 -170 8 -44 17 -102 21
-130 3 -27 18 -135 35 -240 36 -236 39 -272 19 -266 -8 3 -31 6 -51 7 -20 0
-41 4 -47 8 -6 4 -31 7 -54 6 -24 0 -56 0 -71 0 -46 0 -67 17 -67 54 0 37 -26
233 -64 481 -13 88 -40 266 -60 395 -68 450 -103 823 -136 1435 -38 717 -34
788 105 1845 27 206 51 423 61 548 l7 82 -50 0 c-63 0 -214 -38 -319 -80 -181
-72 -425 -222 -657 -404 -71 -56 -139 -108 -152 -116 -75 -48 -311 -268 -365
-340 -70 -93 -122 -212 -155 -354 -62 -267 -92 -752 -65 -1064 5 -65 14 -198
20 -297 6 -99 24 -358 40 -575 43 -578 50 -733 52 -1165 2 -420 5 -396 -51
-534 -11 -25 -29 -72 -41 -104 -12 -31 -27 -57 -33 -57 -6 0 -47 28 -92 62
-313 242 -587 508 -819 798 -252 315 -317 411 -549 815 -55 97 -208 432 -253
555 -15 41 -35 93 -45 115 -23 51 -103 301 -122 380 -8 33 -24 92 -35 130 -11
39 -23 86 -26 105 -3 19 -19 112 -36 205 -74 419 -75 426 -75 925 0 499 1 506
75 925 17 94 33 186 36 205 3 19 15 67 26 105 11 39 27 97 35 130 19 79 99
329 122 380 10 22 30 74 45 115 45 123 198 458 253 555 232 404 297 500 549
815 302 377 696 734 1121 1016 79 52 145 94 148 94 3 0 34 18 68 39 177 112
530 284 742 363 234 87 616 206 715 222 19 3 98 17 175 31 155 28 445 72 515
78 25 2 171 4 325 5 220 1 276 -2 261 -11z m882 -87 c23 -6 59 -13 80 -16 96
-14 477 -132 717 -222 212 -79 565 -251 742 -363 34 -21 65 -39 68 -39 3 0 69
-42 148 -94 425 -282 819 -639 1121 -1016 252 -315 317 -411 549 -815 32 -56
113 -228 192 -405 18 -41 50 -120 71 -175 20 -55 40 -104 44 -110 17 -25 162
-519 174 -595 3 -19 19 -111 36 -205 74 -419 75 -426 75 -925 0 -499 -1 -506
-75 -925 -17 -93 -33 -186 -36 -205 -3 -19 -15 -66 -26 -105 -11 -38 -27 -97
-35 -130 -19 -79 -99 -329 -122 -380 -10 -22 -30 -74 -45 -115 -45 -123 -198
-458 -253 -555 -232 -404 -297 -500 -549 -815 -241 -301 -514 -565 -848 -820
-62 -47 -106 -75 -102 -64 16 41 45 194 55 289 44 426 9 955 -115 1730 -32
205 -187 1054 -220 1210 -8 39 -16 81 -19 95 -3 20 -40 223 -70 390 -30 166
-41 266 -49 460 -2 47 -9 121 -15 165 -8 54 -10 217 -7 495 6 523 6 539 56
1220 44 602 45 629 27 636 -9 3 -48 1 -88 -5 -287 -45 -771 -332 -1206 -715
-271 -238 -358 -386 -397 -676 -27 -198 -65 -664 -77 -937 -29 -667 43 -1535
206 -2468 83 -476 136 -779 161 -915 25 -138 27 -155 39 -298 7 -73 5 -85 -11
-103 -18 -20 -173 -104 -179 -97 -1 2 -12 57 -24 123 -12 66 -26 143 -31 170
-14 71 -222 1322 -259 1555 -43 265 -87 740 -138 1465 -20 290 -30 1480 -14
1610 6 44 18 215 26 380 32 611 76 1266 100 1475 13 118 49 384 80 590 127
850 126 843 171 1213 6 51 8 51 72 37z"/>
</g>
</svg>
